<mxfile host="app.diagrams.net" modified="2023-01-19T13:47:20.014Z" agent="5.0 (Windows NT 10.0; Win64; x64) AppleWebKit/537.36 (KHTML, like Gecko) Chrome/108.0.0.0 Safari/537.36" etag="lwGV4mevHu5FKCPqvbyD" version="20.6.2" type="github">
  <diagram id="C5RBs43oDa-KdzZeNtuy" name="Page-1">
    <mxGraphModel dx="1422" dy="867" grid="1" gridSize="10" guides="1" tooltips="1" connect="1" arrows="1" fold="1" page="1" pageScale="1" pageWidth="827" pageHeight="1169" math="0" shadow="0">
      <root>
        <mxCell id="WIyWlLk6GJQsqaUBKTNV-0" />
        <mxCell id="WIyWlLk6GJQsqaUBKTNV-1" parent="WIyWlLk6GJQsqaUBKTNV-0" />
        <mxCell id="1YlNQuaeXz_3Mn6UGADD-7" style="edgeStyle=orthogonalEdgeStyle;rounded=0;orthogonalLoop=1;jettySize=auto;html=1;entryX=0.5;entryY=0;entryDx=0;entryDy=0;" edge="1" parent="WIyWlLk6GJQsqaUBKTNV-1" source="1YlNQuaeXz_3Mn6UGADD-1" target="1YlNQuaeXz_3Mn6UGADD-2">
          <mxGeometry relative="1" as="geometry" />
        </mxCell>
        <mxCell id="1YlNQuaeXz_3Mn6UGADD-1" value="crop image" style="rounded=1;whiteSpace=wrap;html=1;" vertex="1" parent="WIyWlLk6GJQsqaUBKTNV-1">
          <mxGeometry x="270" y="130" width="120" height="60" as="geometry" />
        </mxCell>
        <mxCell id="1YlNQuaeXz_3Mn6UGADD-4" value="" style="edgeStyle=orthogonalEdgeStyle;rounded=0;orthogonalLoop=1;jettySize=auto;html=1;" edge="1" parent="WIyWlLk6GJQsqaUBKTNV-1" source="1YlNQuaeXz_3Mn6UGADD-2" target="1YlNQuaeXz_3Mn6UGADD-3">
          <mxGeometry relative="1" as="geometry" />
        </mxCell>
        <mxCell id="1YlNQuaeXz_3Mn6UGADD-2" value="auto-adjust contrast" style="rounded=1;whiteSpace=wrap;html=1;" vertex="1" parent="WIyWlLk6GJQsqaUBKTNV-1">
          <mxGeometry x="270" y="240" width="120" height="60" as="geometry" />
        </mxCell>
        <mxCell id="1YlNQuaeXz_3Mn6UGADD-6" value="" style="edgeStyle=orthogonalEdgeStyle;rounded=0;orthogonalLoop=1;jettySize=auto;html=1;" edge="1" parent="WIyWlLk6GJQsqaUBKTNV-1" source="1YlNQuaeXz_3Mn6UGADD-3" target="1YlNQuaeXz_3Mn6UGADD-5">
          <mxGeometry relative="1" as="geometry" />
        </mxCell>
        <mxCell id="1YlNQuaeXz_3Mn6UGADD-15" value="" style="edgeStyle=orthogonalEdgeStyle;rounded=0;orthogonalLoop=1;jettySize=auto;html=1;" edge="1" parent="WIyWlLk6GJQsqaUBKTNV-1" source="1YlNQuaeXz_3Mn6UGADD-3" target="1YlNQuaeXz_3Mn6UGADD-14">
          <mxGeometry relative="1" as="geometry" />
        </mxCell>
        <mxCell id="1YlNQuaeXz_3Mn6UGADD-16" style="edgeStyle=orthogonalEdgeStyle;rounded=0;orthogonalLoop=1;jettySize=auto;html=1;exitX=0;exitY=1;exitDx=0;exitDy=0;entryX=0.433;entryY=-0.05;entryDx=0;entryDy=0;entryPerimeter=0;" edge="1" parent="WIyWlLk6GJQsqaUBKTNV-1" source="1YlNQuaeXz_3Mn6UGADD-3" target="1YlNQuaeXz_3Mn6UGADD-18">
          <mxGeometry relative="1" as="geometry">
            <mxPoint x="240" y="480" as="targetPoint" />
            <Array as="points">
              <mxPoint x="192" y="420" />
            </Array>
          </mxGeometry>
        </mxCell>
        <mxCell id="1YlNQuaeXz_3Mn6UGADD-17" style="edgeStyle=orthogonalEdgeStyle;rounded=0;orthogonalLoop=1;jettySize=auto;html=1;entryX=0.5;entryY=0;entryDx=0;entryDy=0;" edge="1" parent="WIyWlLk6GJQsqaUBKTNV-1" source="1YlNQuaeXz_3Mn6UGADD-3" target="1YlNQuaeXz_3Mn6UGADD-20">
          <mxGeometry relative="1" as="geometry">
            <mxPoint x="340" y="490" as="targetPoint" />
          </mxGeometry>
        </mxCell>
        <mxCell id="1YlNQuaeXz_3Mn6UGADD-19" style="edgeStyle=orthogonalEdgeStyle;rounded=0;orthogonalLoop=1;jettySize=auto;html=1;exitX=1;exitY=1;exitDx=0;exitDy=0;entryX=0.5;entryY=0;entryDx=0;entryDy=0;" edge="1" parent="WIyWlLk6GJQsqaUBKTNV-1" source="1YlNQuaeXz_3Mn6UGADD-3" target="1YlNQuaeXz_3Mn6UGADD-27">
          <mxGeometry relative="1" as="geometry">
            <mxPoint x="500" y="490" as="targetPoint" />
          </mxGeometry>
        </mxCell>
        <mxCell id="1YlNQuaeXz_3Mn6UGADD-3" value="Object Detection with YOLO v8&amp;nbsp;" style="whiteSpace=wrap;html=1;rounded=1;" vertex="1" parent="WIyWlLk6GJQsqaUBKTNV-1">
          <mxGeometry x="270" y="360" width="120" height="60" as="geometry" />
        </mxCell>
        <mxCell id="1YlNQuaeXz_3Mn6UGADD-5" value="hdt_IO" style="whiteSpace=wrap;html=1;rounded=1;" vertex="1" parent="WIyWlLk6GJQsqaUBKTNV-1">
          <mxGeometry x="10" y="770" width="120" height="60" as="geometry" />
        </mxCell>
        <mxCell id="1YlNQuaeXz_3Mn6UGADD-14" value="AlSi_SC_IO" style="whiteSpace=wrap;html=1;rounded=1;" vertex="1" parent="WIyWlLk6GJQsqaUBKTNV-1">
          <mxGeometry x="700" y="770" width="120" height="60" as="geometry" />
        </mxCell>
        <mxCell id="1YlNQuaeXz_3Mn6UGADD-18" value="hdt_NIO" style="whiteSpace=wrap;html=1;rounded=1;" vertex="1" parent="WIyWlLk6GJQsqaUBKTNV-1">
          <mxGeometry x="140" y="770" width="120" height="60" as="geometry" />
        </mxCell>
        <mxCell id="1YlNQuaeXz_3Mn6UGADD-22" value="" style="edgeStyle=orthogonalEdgeStyle;rounded=0;orthogonalLoop=1;jettySize=auto;html=1;" edge="1" parent="WIyWlLk6GJQsqaUBKTNV-1" source="1YlNQuaeXz_3Mn6UGADD-20" target="1YlNQuaeXz_3Mn6UGADD-21">
          <mxGeometry relative="1" as="geometry" />
        </mxCell>
        <mxCell id="1YlNQuaeXz_3Mn6UGADD-20" value="AlSi" style="whiteSpace=wrap;html=1;rounded=1;" vertex="1" parent="WIyWlLk6GJQsqaUBKTNV-1">
          <mxGeometry x="280" y="480" width="120" height="60" as="geometry" />
        </mxCell>
        <mxCell id="1YlNQuaeXz_3Mn6UGADD-24" value="NO" style="edgeStyle=orthogonalEdgeStyle;rounded=0;orthogonalLoop=1;jettySize=auto;html=1;" edge="1" parent="WIyWlLk6GJQsqaUBKTNV-1" source="1YlNQuaeXz_3Mn6UGADD-21" target="1YlNQuaeXz_3Mn6UGADD-23">
          <mxGeometry relative="1" as="geometry" />
        </mxCell>
        <mxCell id="1YlNQuaeXz_3Mn6UGADD-26" value="YES" style="edgeStyle=orthogonalEdgeStyle;rounded=0;orthogonalLoop=1;jettySize=auto;html=1;" edge="1" parent="WIyWlLk6GJQsqaUBKTNV-1" source="1YlNQuaeXz_3Mn6UGADD-21" target="1YlNQuaeXz_3Mn6UGADD-25">
          <mxGeometry relative="1" as="geometry" />
        </mxCell>
        <mxCell id="1YlNQuaeXz_3Mn6UGADD-21" value="is_inside&lt;br&gt;_diaphrgm" style="rhombus;whiteSpace=wrap;html=1;rounded=1;" vertex="1" parent="WIyWlLk6GJQsqaUBKTNV-1">
          <mxGeometry x="300" y="610" width="80" height="80" as="geometry" />
        </mxCell>
        <mxCell id="1YlNQuaeXz_3Mn6UGADD-23" value="AlSi_d_IO" style="whiteSpace=wrap;html=1;rounded=1;" vertex="1" parent="WIyWlLk6GJQsqaUBKTNV-1">
          <mxGeometry x="280" y="770" width="120" height="60" as="geometry" />
        </mxCell>
        <mxCell id="1YlNQuaeXz_3Mn6UGADD-25" value="AlSi_d_NIO" style="whiteSpace=wrap;html=1;rounded=1;" vertex="1" parent="WIyWlLk6GJQsqaUBKTNV-1">
          <mxGeometry x="414" y="770" width="120" height="60" as="geometry" />
        </mxCell>
        <mxCell id="1YlNQuaeXz_3Mn6UGADD-30" value="" style="edgeStyle=orthogonalEdgeStyle;rounded=0;orthogonalLoop=1;jettySize=auto;html=1;" edge="1" parent="WIyWlLk6GJQsqaUBKTNV-1" source="1YlNQuaeXz_3Mn6UGADD-27" target="1YlNQuaeXz_3Mn6UGADD-29">
          <mxGeometry relative="1" as="geometry" />
        </mxCell>
        <mxCell id="1YlNQuaeXz_3Mn6UGADD-27" value="AlSi_sc_NIO" style="whiteSpace=wrap;html=1;rounded=1;" vertex="1" parent="WIyWlLk6GJQsqaUBKTNV-1">
          <mxGeometry x="550" y="490" width="120" height="60" as="geometry" />
        </mxCell>
        <mxCell id="1YlNQuaeXz_3Mn6UGADD-37" value="YES" style="edgeStyle=orthogonalEdgeStyle;rounded=0;orthogonalLoop=1;jettySize=auto;html=1;" edge="1" parent="WIyWlLk6GJQsqaUBKTNV-1" source="1YlNQuaeXz_3Mn6UGADD-29" target="1YlNQuaeXz_3Mn6UGADD-36">
          <mxGeometry relative="1" as="geometry" />
        </mxCell>
        <mxCell id="1YlNQuaeXz_3Mn6UGADD-38" style="edgeStyle=orthogonalEdgeStyle;rounded=0;orthogonalLoop=1;jettySize=auto;html=1;entryX=0;entryY=0.5;entryDx=0;entryDy=0;" edge="1" parent="WIyWlLk6GJQsqaUBKTNV-1" source="1YlNQuaeXz_3Mn6UGADD-29" target="1YlNQuaeXz_3Mn6UGADD-14">
          <mxGeometry relative="1" as="geometry" />
        </mxCell>
        <mxCell id="1YlNQuaeXz_3Mn6UGADD-39" value="NO" style="edgeLabel;html=1;align=center;verticalAlign=middle;resizable=0;points=[];" vertex="1" connectable="0" parent="1YlNQuaeXz_3Mn6UGADD-38">
          <mxGeometry x="-0.25" y="3" relative="1" as="geometry">
            <mxPoint as="offset" />
          </mxGeometry>
        </mxCell>
        <mxCell id="1YlNQuaeXz_3Mn6UGADD-29" value="_in_critical&lt;br&gt;_cross_section?" style="rhombus;whiteSpace=wrap;html=1;rounded=1;" vertex="1" parent="WIyWlLk6GJQsqaUBKTNV-1">
          <mxGeometry x="570" y="610" width="80" height="80" as="geometry" />
        </mxCell>
        <mxCell id="1YlNQuaeXz_3Mn6UGADD-36" value="AlSi_SC_NIO" style="whiteSpace=wrap;html=1;rounded=1;" vertex="1" parent="WIyWlLk6GJQsqaUBKTNV-1">
          <mxGeometry x="550" y="770" width="120" height="60" as="geometry" />
        </mxCell>
      </root>
    </mxGraphModel>
  </diagram>
</mxfile>
